<svg xmlns="http://www.w3.org/2000/svg" version="1.1" viewBox="-5.0 -10.0 110.0 135.0">
 <path d="m89.48 40.227h-31.777l0.62109-10.453c0.12891-2.1016-0.55469-4.168-1.8867-5.7617-0.019531-0.023438-0.046875-0.0625-0.070312-0.085938-0.12891-0.14844-0.25781-0.29297-0.38281-0.42188-0.1875-0.19922-0.38672-0.38672-0.63672-0.60156l-0.12109-0.10547c-0.28906-0.23828-0.60937-0.46094-1.0312-0.71094-0.92969-0.54688-1.9609-0.89063-3.0156-1.0391l8.6016-0.003906c1.1055 0 2-0.89453 2-2s-0.89453-2-2-2h-7.7812v-1.6133c0-1.1055-0.89453-2-2-2s-2 0.89453-2 2v1.6133h-7.7812c-1.1055 0-2 0.89453-2 2s0.89453 2 2 2h8.6094c-1.0391 0.14453-2.0508 0.47266-2.9609 1.0039l-0.19922 0.12109c-0.26562 0.16406-0.51953 0.33594-0.75 0.51953-0.17578 0.13672-0.34375 0.28125-0.55078 0.46875-0.097657 0.089844-0.19531 0.18359-0.28516 0.27344-1.6719 1.6875-2.5469 4-2.4062 6.3398l0.62109 10.457h-31.777c-4.1016 0-7.4414 3.3359-7.4414 7.4375 0 3.8398 2.9961 7.0938 6.8242 7.4062l21.531 1.7734c3.9805 0.32422 7.9766 0.54688 11.895 0.65625l0.87109 14.594h-6.2266c-2.6914 0-4.8828 2.1953-4.8828 4.8906 0 2.6914 2.1914 4.8828 4.8828 4.8828h6.8164c0.27344 2.6523 2.5156 4.6992 5.2109 4.6992s4.9453-2.0469 5.2188-4.6992h6.8047c2.6953 0 4.8906-2.1914 4.8906-4.8828 0-2.6953-2.1953-4.8906-4.8906-4.8906h-6.2188l0.87109-14.594c3.9102-0.10938 7.9023-0.33203 11.887-0.65625l21.531-1.7734c3.832-0.3125 6.8359-3.5664 6.8359-7.4062-0.007813-4.0977-3.3438-7.4375-7.4492-7.4375zm0.36328 11.855-21.531 1.7734c-4.3945 0.35938-8.7969 0.58984-13.09 0.68359-0.78125 0.015626-1.418 0.62891-1.4648 1.4102l-1.0469 17.559c-0.023438 0.41406 0.12109 0.81641 0.40625 1.1172 0.28125 0.30078 0.67969 0.47266 1.0938 0.47266h7.8125c1.043 0 1.8906 0.84766 1.8906 1.8906 0 1.0391-0.84766 1.8828-1.8906 1.8828h-8.2188c-0.79688 0-1.4531 0.62109-1.4961 1.4141l-0.070313 1.1797c-0.070312 1.1797-1.0547 2.1055-2.2422 2.1055-1.1836 0-2.1641-0.92578-2.2344-2.1055l-0.070313-1.1836c-0.046875-0.79297-0.70312-1.4141-1.4961-1.4141h-8.2266c-1.0391 0-1.8828-0.84375-1.8828-1.8828 0-1.043 0.84375-1.8906 1.8828-1.8906h7.8203c0.41406 0 0.80859-0.17188 1.0938-0.47266 0.28125-0.30078 0.42969-0.70703 0.40625-1.1172l-1.0469-17.559c-0.046876-0.78125-0.68359-1.3945-1.4648-1.4102-4.3008-0.09375-8.707-0.32422-13.098-0.68359l-21.531-1.7734c-2.2812-0.1875-4.0703-2.125-4.0703-4.4141 0-2.4492 1.9922-4.4375 4.4414-4.4375h33.371c0.41406 0 0.80859-0.17187 1.0938-0.47266 0.28125-0.30078 0.42969-0.70703 0.40625-1.1172l-0.71875-12.047c-0.09375-1.5117 0.45703-2.9531 1.5469-4.0547 0.058594-0.058594 0.12109-0.11719 0.20312-0.19531 0.10547-0.09375 0.21094-0.19141 0.33203-0.28516 0.15625-0.12109 0.31641-0.23047 0.47656-0.32813 0.003906-0.003906 0.125-0.078124 0.12891-0.078124 1.6172-0.94141 3.6641-0.95313 5.3398 0.035156 0.24609 0.14844 0.44922 0.28906 0.63281 0.4375l0.09375 0.082031c0.13281 0.11719 0.26172 0.23828 0.39453 0.37891 0.089844 0.09375 0.17578 0.1875 0.27344 0.30078 0.875 1.0547 1.3164 2.3711 1.2344 3.707l-0.71875 12.047c-0.023437 0.41406 0.12109 0.81641 0.40625 1.1172 0.28125 0.30078 0.67969 0.47266 1.0938 0.47266h33.371c2.4492 0 4.4414 1.9922 4.4414 4.4375 0 2.293-1.7891 4.2305-4.0781 4.418z"/>
<text x="0.0" y="117.5" font-size="5.0" font-weight="bold" font-family="Arbeit Regular, Helvetica, Arial-Unicode, Arial, Sans-serif" fill="#000000">Created by ArashDesign</text><text x="0.0" y="122.5" font-size="5.0" font-weight="bold" font-family="Arbeit Regular, Helvetica, Arial-Unicode, Arial, Sans-serif" fill="#000000">from Noun Project</text></svg>