<?xml version="1.0" encoding="UTF-8" standalone="no"?>
<!-- Created with Inkscape (http://www.inkscape.org/) -->

<svg
   xmlns:dc="http://purl.org/dc/elements/1.1/"
   xmlns:cc="http://creativecommons.org/ns#"
   xmlns:rdf="http://www.w3.org/1999/02/22-rdf-syntax-ns#"
   xmlns:svg="http://www.w3.org/2000/svg"
   xmlns="http://www.w3.org/2000/svg"
   xmlns:sodipodi="http://sodipodi.sourceforge.net/DTD/sodipodi-0.dtd"
   xmlns:inkscape="http://www.inkscape.org/namespaces/inkscape"
   version="1.1"
   id="svg92607"
   xml:space="preserve"
   width="800"
   height="800"
   viewBox="0 0 800 800"
   sodipodi:docname="wax-seal-publicdomainvectors.org.svg"
   inkscape:version="0.92.4 (5da689c313, 2019-01-14)"><metadata
     id="metadata92613"><rdf:RDF><cc:Work
         rdf:about=""><dc:format>image/svg+xml</dc:format><dc:type
           rdf:resource="http://purl.org/dc/dcmitype/StillImage" /><dc:title></dc:title></cc:Work></rdf:RDF></metadata><defs
     id="defs92611"><clipPath
       clipPathUnits="userSpaceOnUse"
       id="clipPath92623"><path
         d="M 0,600 H 600 V 0 H 0 Z"
         id="path92621"
         inkscape:connector-curvature="0" /></clipPath></defs><sodipodi:namedview
     pagecolor="#ffffff"
     bordercolor="#666666"
     borderopacity="1"
     objecttolerance="10"
     gridtolerance="10"
     guidetolerance="10"
     inkscape:pageopacity="0"
     inkscape:pageshadow="2"
     inkscape:window-width="797"
     inkscape:window-height="480"
     id="namedview92609"
     showgrid="false"
     inkscape:zoom="0.295"
     inkscape:cx="400"
     inkscape:cy="400"
     inkscape:window-x="0"
     inkscape:window-y="0"
     inkscape:window-maximized="0"
     inkscape:current-layer="g92615" /><g
     id="g92615"
     inkscape:groupmode="layer"
     inkscape:label="wax-seal-publicdomainvectors.org"
     transform="matrix(1.3333333,0,0,-1.3333333,0,800)"><g
       id="g92617"><g
         id="g92619"
         clip-path="url(#clipPath92623)"><path
           d="M 240.751,321.152 C 169.11,255.08 148.168,160.84 155.606,50.836 c 5.978,29.889 16.738,54.996 37.063,77.115 11.956,-31.883 24.509,-66.156 45.432,-97.439 -3.151,96.468 13.423,179.06 64.532,237.345 38.137,-47.613 59.609,-112.091 70.609,-187.166 15.049,34.497 21.328,70.452 27.447,103.948 23.924,-18.166 38.961,-40.971 50.141,-69.328 -12.633,113.73 -52.33,205.338 -141.213,256.744 -29.015,-13.838 -58.031,-27.677 -87.044,-41.514 6.292,-2.895 12.343,-6.033 18.178,-9.389"
           style="fill:#ff2f00;fill-opacity:1;fill-rule:evenodd;stroke:none"
           id="path92625"
           inkscape:connector-curvature="0" /><path
           d="m 240.751,321.152 c -28.297,-26.095 -48.677,-56.589 -62.53,-90.709 7.715,-4.156 16.172,-6.269 25.393,-7.093 7.12,-0.635 14.176,-0.448 21.302,-0.641 4.655,-0.127 10.059,-0.416 14.464,-2.039 1.666,-0.611 3.196,-1.426 4.59,-2.529 5.785,-4.575 12.3,-9.563 19.314,-14.352 9.818,23.678 22.762,45.154 39.349,64.068 18.381,-22.945 32.888,-49.812 44.219,-79.892 18.615,10.797 30.765,32.691 40.265,50.99 5.74,11.059 12.856,18.332 23.41,24.744 -22.695,45.063 -55.334,81.997 -100.91,108.356 -29.015,-13.838 -58.031,-27.677 -87.044,-41.514 6.292,-2.895 12.343,-6.033 18.178,-9.389"
           style="fill:#d42700;fill-opacity:1;fill-rule:evenodd;stroke:none"
           id="path92627"
           inkscape:connector-curvature="0" /><path
           d="m 244.887,507.737 c 40.567,13.875 91.349,58.555 126.859,16.075 7.709,-9.222 -4.252,-58.568 18.588,-63.31 32.258,-6.695 46.078,-44.842 50.814,-58.218 9.227,-26.046 -28.896,-33.925 -14.724,-75.319 19.07,-55.697 -26.375,-32.791 -51.701,-81.574 -26.819,-51.659 -49.383,-73.789 -122.091,-16.295 -20.238,16.002 -52.049,-1.852 -75.559,19.109 -26.24,23.397 -3.284,30.471 -28.346,90.549 -12.341,29.582 -47.752,50.017 -23.477,77.913 20.552,23.618 28.047,22.083 31.625,44.72 11.592,73.382 10.435,19.818 88.012,46.35"
           style="fill:#7a2d14;fill-opacity:1;fill-rule:evenodd;stroke:none"
           id="path92629"
           inkscape:connector-curvature="0" /><path
           d="m 244.887,507.737 c 40.567,13.875 91.349,58.555 126.859,16.075 7.709,-9.222 -4.252,-58.568 18.588,-63.31 2.92,-0.605 5.686,-1.471 8.309,-2.551 -38.502,-94.256 -129.863,-161.303 -237.25,-164.277 -1.276,10.829 -4.285,24.988 -12.666,45.08 -12.341,29.582 -47.752,50.017 -23.477,77.913 20.552,23.618 28.047,22.083 31.625,44.72 11.592,73.382 10.435,19.818 88.012,46.35"
           style="fill:#853318;fill-opacity:1;fill-rule:evenodd;stroke:none"
           id="path92631"
           inkscape:connector-curvature="0" /><path
           d="m 371.264,489.193 c -0.764,13.962 0.621,27.895 -2.746,31.92 -14.221,17.014 -31.899,18.612 -50.35,13.886 28.689,-7.052 48.291,-20.49 53.096,-45.807 z m 56.463,-118.009 c 6.351,10.592 13.283,18.898 9.457,29.695 -6.688,18.881 -17.241,40.904 -35.442,50.951 15.838,-13.536 35.442,-50.953 25.983,-80.649 z M 394,274.207 c 11.371,7.762 22.277,10.473 29.469,19.832 6.422,8.357 2.027,22.649 -1.026,31.564 -1.183,3.462 -2.009,6.714 -2.545,9.785 l -0.011,0.034 c -2.055,-24.878 4.681,-35.281 -25.889,-61.215 z M 279.665,214.764 c 17.3,-10.901 37.564,-19.61 53.692,-13.215 11.618,4.603 21,16.734 28.37,28.935 -20.184,-15.371 -42.168,-26.75 -82.062,-15.72 M 166.016,289.73 c 1.329,-16.39 -1.136,-25.017 13.856,-38.384 13.109,-11.688 29.558,-10.065 45.333,-10.465 h 10e-4 c -28.633,8.447 -49.289,14.303 -59.19,48.849 m -35.462,126.557 c -0.708,-0.77 -1.419,-1.562 -2.132,-2.381 -19.29,-22.169 7.217,-44.152 20.245,-65.88 l 0.002,10e-4 c -10.679,27.107 -26.764,45.435 -18.115,68.26 m 61.122,78.507 c -11.947,0.852 -19.597,3.127 -20.375,2.775 -3.575,-1.624 -6.383,-13.702 -8.189,-23.781 7.29,9.138 13.878,14.244 28.564,21.006"
           style="fill:#a34d31;fill-opacity:1;fill-rule:evenodd;stroke:none"
           id="path92633"
           inkscape:connector-curvature="0" /><path
           d="m 371.264,489.193 c -0.764,13.962 0.621,27.895 -2.746,31.92 -14.221,17.014 -31.899,18.612 -50.35,13.886 28.689,-7.052 48.291,-20.49 53.096,-45.807 z m -240.71,-72.906 c -0.708,-0.77 -1.419,-1.562 -2.132,-2.381 -19.29,-22.169 7.217,-44.152 20.245,-65.88 l 0.002,10e-4 c -10.679,27.107 -26.764,45.435 -18.115,68.26 m 61.122,78.507 c -11.947,0.852 -19.597,3.127 -20.375,2.775 -3.575,-1.624 -6.383,-13.702 -8.189,-23.781 7.29,9.138 13.878,14.244 28.564,21.006"
           style="fill:#b0593c;fill-opacity:1;fill-rule:evenodd;stroke:none"
           id="path92635"
           inkscape:connector-curvature="0" /><path
           d="m 285.021,251.445 c 62.436,0 113.36,50.924 113.36,113.361 0,62.436 -50.924,113.36 -113.36,113.36 -62.437,0 -113.361,-50.924 -113.361,-113.36 0,-62.437 50.924,-113.361 113.361,-113.361"
           style="fill:#63210b;fill-opacity:1;fill-rule:evenodd;stroke:none"
           id="path92637"
           inkscape:connector-curvature="0" /><path
           d="m 285.021,478.166 c 40.952,0 76.827,-21.718 96.749,-54.261 -39.42,-66.93 -107.48,-114.971 -187.336,-127.255 -14.295,18.971 -22.774,42.572 -22.774,68.156 0,62.607 50.753,113.36 113.361,113.36"
           style="fill:#6b250d;fill-opacity:1;fill-rule:evenodd;stroke:none"
           id="path92639"
           inkscape:connector-curvature="0" /><path
           d="m 209.841,439.985 c 41.52,41.52 108.839,41.52 150.358,0 41.522,-41.52 41.522,-108.839 0,-150.358 -41.519,-41.522 -108.838,-41.522 -150.358,0 -41.52,41.519 -41.52,108.838 0,150.358"
           style="fill:#69240d;fill-opacity:1;fill-rule:evenodd;stroke:none"
           id="path92641"
           inkscape:connector-curvature="0" /><path
           d="m 209.841,439.985 c 41.521,41.52 108.839,41.52 150.358,0 6.985,-6.983 12.787,-14.698 17.42,-22.895 -38.58,-61.198 -101.575,-105.449 -175.312,-119.094 -33.808,41.755 -31.299,103.155 7.534,141.989"
           style="fill:#70270e;fill-opacity:1;fill-rule:evenodd;stroke:none"
           id="path92643"
           inkscape:connector-curvature="0" /><path
           d="m 373.559,393.71 c 10.502,-32.259 2.939,-69.117 -22.692,-94.749 -25.635,-25.635 -62.492,-33.197 -94.751,-22.693 30.559,-7.786 65.581,1.246 90.89,26.553 25.307,25.307 34.338,60.329 26.553,90.889"
           style="fill:#591c08;fill-opacity:1;fill-rule:evenodd;stroke:none"
           id="path92645"
           inkscape:connector-curvature="0" /><path
           d="m 219.174,430.651 c 25.634,25.633 62.492,33.195 94.752,22.692 -30.562,7.785 -65.583,-1.245 -90.889,-26.552 -25.309,-25.308 -34.339,-60.33 -26.553,-90.89 -10.505,32.26 -2.942,69.117 22.69,94.75"
           style="fill:#bd6649;fill-opacity:1;fill-rule:evenodd;stroke:none"
           id="path92647"
           inkscape:connector-curvature="0" /><path
           d="m 363.953,376.307 c 3.485,-24.054 -4.025,-49.394 -22.533,-67.901 -18.508,-18.508 -43.848,-26.017 -67.9,-22.533 23.096,-1.959 47.459,6.332 65.781,24.654 18.32,18.321 26.609,42.682 24.652,65.78"
           style="fill:#b3593b;fill-opacity:1;fill-rule:evenodd;stroke:none"
           id="path92649"
           inkscape:connector-curvature="0" /><path
           d="m 228.621,421.205 c 18.507,18.507 43.846,26.018 67.901,22.532 -23.098,1.959 -47.458,-6.33 -65.78,-24.653 -18.323,-18.322 -26.613,-42.683 -24.653,-65.78 -3.486,24.054 4.025,49.393 22.532,67.901"
           style="fill:#5e1f0a;fill-opacity:1;fill-rule:evenodd;stroke:none"
           id="path92651"
           inkscape:connector-curvature="0" /></g></g></g></svg>